<mxfile host="Electron" modified="2024-05-22T13:22:08.700Z" agent="Mozilla/5.0 (Windows NT 10.0; Win64; x64) AppleWebKit/537.36 (KHTML, like Gecko) draw.io/22.0.3 Chrome/114.0.5735.289 Electron/25.8.4 Safari/537.36" etag="hmJ7Hy8K8jAV5ELduq54" version="22.0.3" type="device">
  <diagram name="Page-1" id="MSSmupOJTjRv-ihC_8Dz">
    <mxGraphModel dx="1908" dy="1472" grid="1" gridSize="10" guides="1" tooltips="1" connect="1" arrows="1" fold="1" page="1" pageScale="1" pageWidth="850" pageHeight="1100" math="0" shadow="0">
      <root>
        <mxCell id="0" />
        <mxCell id="1" parent="0" />
        <mxCell id="Q2N4sj5XguYyxnvpDo1Y-4" style="edgeStyle=orthogonalEdgeStyle;rounded=0;orthogonalLoop=1;jettySize=auto;html=1;" edge="1" parent="1" source="Q2N4sj5XguYyxnvpDo1Y-1" target="Q2N4sj5XguYyxnvpDo1Y-3">
          <mxGeometry relative="1" as="geometry" />
        </mxCell>
        <mxCell id="Q2N4sj5XguYyxnvpDo1Y-5" style="edgeStyle=orthogonalEdgeStyle;rounded=0;orthogonalLoop=1;jettySize=auto;html=1;entryX=0.5;entryY=0;entryDx=0;entryDy=0;" edge="1" parent="1" source="Q2N4sj5XguYyxnvpDo1Y-1" target="Q2N4sj5XguYyxnvpDo1Y-2">
          <mxGeometry relative="1" as="geometry" />
        </mxCell>
        <mxCell id="Q2N4sj5XguYyxnvpDo1Y-1" value="1,2" style="ellipse;whiteSpace=wrap;html=1;aspect=fixed;" vertex="1" parent="1">
          <mxGeometry x="260" y="140" width="70" height="70" as="geometry" />
        </mxCell>
        <mxCell id="Q2N4sj5XguYyxnvpDo1Y-85" style="edgeStyle=orthogonalEdgeStyle;rounded=0;orthogonalLoop=1;jettySize=auto;html=1;" edge="1" parent="1" source="Q2N4sj5XguYyxnvpDo1Y-2" target="Q2N4sj5XguYyxnvpDo1Y-84">
          <mxGeometry relative="1" as="geometry" />
        </mxCell>
        <mxCell id="Q2N4sj5XguYyxnvpDo1Y-89" style="edgeStyle=orthogonalEdgeStyle;rounded=0;orthogonalLoop=1;jettySize=auto;html=1;entryX=0.5;entryY=0;entryDx=0;entryDy=0;" edge="1" parent="1" source="Q2N4sj5XguYyxnvpDo1Y-2" target="Q2N4sj5XguYyxnvpDo1Y-88">
          <mxGeometry relative="1" as="geometry" />
        </mxCell>
        <mxCell id="Q2N4sj5XguYyxnvpDo1Y-2" value="3" style="ellipse;whiteSpace=wrap;html=1;aspect=fixed;" vertex="1" parent="1">
          <mxGeometry x="120" y="250" width="70" height="70" as="geometry" />
        </mxCell>
        <mxCell id="Q2N4sj5XguYyxnvpDo1Y-8" style="edgeStyle=orthogonalEdgeStyle;rounded=0;orthogonalLoop=1;jettySize=auto;html=1;entryX=0.5;entryY=0;entryDx=0;entryDy=0;" edge="1" parent="1" source="Q2N4sj5XguYyxnvpDo1Y-3" target="Q2N4sj5XguYyxnvpDo1Y-7">
          <mxGeometry relative="1" as="geometry" />
        </mxCell>
        <mxCell id="Q2N4sj5XguYyxnvpDo1Y-3" value="4" style="ellipse;whiteSpace=wrap;html=1;aspect=fixed;" vertex="1" parent="1">
          <mxGeometry x="420" y="250" width="70" height="70" as="geometry" />
        </mxCell>
        <mxCell id="Q2N4sj5XguYyxnvpDo1Y-32" style="edgeStyle=orthogonalEdgeStyle;rounded=0;orthogonalLoop=1;jettySize=auto;html=1;" edge="1" parent="1" source="Q2N4sj5XguYyxnvpDo1Y-7">
          <mxGeometry relative="1" as="geometry">
            <mxPoint x="585" y="500" as="targetPoint" />
          </mxGeometry>
        </mxCell>
        <mxCell id="Q2N4sj5XguYyxnvpDo1Y-7" value="5.1" style="ellipse;whiteSpace=wrap;html=1;aspect=fixed;" vertex="1" parent="1">
          <mxGeometry x="550" y="340" width="70" height="70" as="geometry" />
        </mxCell>
        <mxCell id="Q2N4sj5XguYyxnvpDo1Y-35" style="edgeStyle=orthogonalEdgeStyle;rounded=0;orthogonalLoop=1;jettySize=auto;html=1;entryX=0.5;entryY=0;entryDx=0;entryDy=0;" edge="1" parent="1" source="Q2N4sj5XguYyxnvpDo1Y-33">
          <mxGeometry relative="1" as="geometry">
            <mxPoint x="585" y="610" as="targetPoint" />
          </mxGeometry>
        </mxCell>
        <mxCell id="Q2N4sj5XguYyxnvpDo1Y-33" value="5.2" style="ellipse;whiteSpace=wrap;html=1;aspect=fixed;" vertex="1" parent="1">
          <mxGeometry x="550" y="500" width="70" height="70" as="geometry" />
        </mxCell>
        <mxCell id="Q2N4sj5XguYyxnvpDo1Y-38" style="edgeStyle=orthogonalEdgeStyle;rounded=0;orthogonalLoop=1;jettySize=auto;html=1;" edge="1" parent="1" source="Q2N4sj5XguYyxnvpDo1Y-36" target="Q2N4sj5XguYyxnvpDo1Y-37">
          <mxGeometry relative="1" as="geometry" />
        </mxCell>
        <mxCell id="Q2N4sj5XguYyxnvpDo1Y-40" style="edgeStyle=orthogonalEdgeStyle;rounded=0;orthogonalLoop=1;jettySize=auto;html=1;entryX=0.5;entryY=0;entryDx=0;entryDy=0;" edge="1" parent="1" source="Q2N4sj5XguYyxnvpDo1Y-36" target="Q2N4sj5XguYyxnvpDo1Y-39">
          <mxGeometry relative="1" as="geometry" />
        </mxCell>
        <mxCell id="Q2N4sj5XguYyxnvpDo1Y-36" value="6,7" style="ellipse;whiteSpace=wrap;html=1;aspect=fixed;" vertex="1" parent="1">
          <mxGeometry x="550" y="610" width="70" height="70" as="geometry" />
        </mxCell>
        <mxCell id="Q2N4sj5XguYyxnvpDo1Y-37" value="8" style="ellipse;whiteSpace=wrap;html=1;aspect=fixed;" vertex="1" parent="1">
          <mxGeometry x="640" y="710" width="70" height="70" as="geometry" />
        </mxCell>
        <mxCell id="Q2N4sj5XguYyxnvpDo1Y-42" style="edgeStyle=orthogonalEdgeStyle;rounded=0;orthogonalLoop=1;jettySize=auto;html=1;" edge="1" parent="1" source="Q2N4sj5XguYyxnvpDo1Y-39" target="Q2N4sj5XguYyxnvpDo1Y-41">
          <mxGeometry relative="1" as="geometry" />
        </mxCell>
        <mxCell id="Q2N4sj5XguYyxnvpDo1Y-72" style="edgeStyle=orthogonalEdgeStyle;rounded=0;orthogonalLoop=1;jettySize=auto;html=1;entryX=1;entryY=0.5;entryDx=0;entryDy=0;" edge="1" parent="1" source="Q2N4sj5XguYyxnvpDo1Y-39" target="Q2N4sj5XguYyxnvpDo1Y-71">
          <mxGeometry relative="1" as="geometry" />
        </mxCell>
        <mxCell id="Q2N4sj5XguYyxnvpDo1Y-39" value="9" style="ellipse;whiteSpace=wrap;html=1;aspect=fixed;" vertex="1" parent="1">
          <mxGeometry x="480" y="700" width="70" height="70" as="geometry" />
        </mxCell>
        <mxCell id="Q2N4sj5XguYyxnvpDo1Y-43" style="edgeStyle=orthogonalEdgeStyle;rounded=0;orthogonalLoop=1;jettySize=auto;html=1;" edge="1" parent="1" source="Q2N4sj5XguYyxnvpDo1Y-41">
          <mxGeometry relative="1" as="geometry">
            <mxPoint x="505" y="960" as="targetPoint" />
          </mxGeometry>
        </mxCell>
        <mxCell id="Q2N4sj5XguYyxnvpDo1Y-41" value="10,11" style="ellipse;whiteSpace=wrap;html=1;aspect=fixed;" vertex="1" parent="1">
          <mxGeometry x="470" y="840" width="70" height="70" as="geometry" />
        </mxCell>
        <mxCell id="Q2N4sj5XguYyxnvpDo1Y-46" style="edgeStyle=orthogonalEdgeStyle;rounded=0;orthogonalLoop=1;jettySize=auto;html=1;" edge="1" parent="1" source="Q2N4sj5XguYyxnvpDo1Y-44" target="Q2N4sj5XguYyxnvpDo1Y-45">
          <mxGeometry relative="1" as="geometry" />
        </mxCell>
        <mxCell id="Q2N4sj5XguYyxnvpDo1Y-60" style="edgeStyle=orthogonalEdgeStyle;rounded=0;orthogonalLoop=1;jettySize=auto;html=1;entryX=0.5;entryY=0;entryDx=0;entryDy=0;" edge="1" parent="1" source="Q2N4sj5XguYyxnvpDo1Y-44" target="Q2N4sj5XguYyxnvpDo1Y-61">
          <mxGeometry relative="1" as="geometry">
            <mxPoint x="370" y="1050" as="targetPoint" />
          </mxGeometry>
        </mxCell>
        <mxCell id="Q2N4sj5XguYyxnvpDo1Y-44" value="12.1" style="ellipse;whiteSpace=wrap;html=1;aspect=fixed;" vertex="1" parent="1">
          <mxGeometry x="470" y="960" width="70" height="70" as="geometry" />
        </mxCell>
        <mxCell id="Q2N4sj5XguYyxnvpDo1Y-48" style="edgeStyle=orthogonalEdgeStyle;rounded=0;orthogonalLoop=1;jettySize=auto;html=1;" edge="1" parent="1" source="Q2N4sj5XguYyxnvpDo1Y-45" target="Q2N4sj5XguYyxnvpDo1Y-47">
          <mxGeometry relative="1" as="geometry" />
        </mxCell>
        <mxCell id="Q2N4sj5XguYyxnvpDo1Y-45" value="12.2" style="ellipse;whiteSpace=wrap;html=1;aspect=fixed;" vertex="1" parent="1">
          <mxGeometry x="470" y="1060" width="70" height="70" as="geometry" />
        </mxCell>
        <mxCell id="Q2N4sj5XguYyxnvpDo1Y-51" style="edgeStyle=orthogonalEdgeStyle;rounded=0;orthogonalLoop=1;jettySize=auto;html=1;" edge="1" parent="1" source="Q2N4sj5XguYyxnvpDo1Y-47" target="Q2N4sj5XguYyxnvpDo1Y-49">
          <mxGeometry relative="1" as="geometry" />
        </mxCell>
        <mxCell id="Q2N4sj5XguYyxnvpDo1Y-47" value="13" style="ellipse;whiteSpace=wrap;html=1;aspect=fixed;" vertex="1" parent="1">
          <mxGeometry x="470" y="1160" width="70" height="70" as="geometry" />
        </mxCell>
        <mxCell id="Q2N4sj5XguYyxnvpDo1Y-53" style="edgeStyle=orthogonalEdgeStyle;rounded=0;orthogonalLoop=1;jettySize=auto;html=1;entryX=0.5;entryY=0;entryDx=0;entryDy=0;" edge="1" parent="1" source="Q2N4sj5XguYyxnvpDo1Y-49" target="Q2N4sj5XguYyxnvpDo1Y-52">
          <mxGeometry relative="1" as="geometry" />
        </mxCell>
        <mxCell id="Q2N4sj5XguYyxnvpDo1Y-49" value="14" style="ellipse;whiteSpace=wrap;html=1;aspect=fixed;" vertex="1" parent="1">
          <mxGeometry x="480" y="1270" width="70" height="70" as="geometry" />
        </mxCell>
        <mxCell id="Q2N4sj5XguYyxnvpDo1Y-56" style="edgeStyle=orthogonalEdgeStyle;rounded=0;orthogonalLoop=1;jettySize=auto;html=1;" edge="1" parent="1" source="Q2N4sj5XguYyxnvpDo1Y-52" target="Q2N4sj5XguYyxnvpDo1Y-55">
          <mxGeometry relative="1" as="geometry" />
        </mxCell>
        <mxCell id="Q2N4sj5XguYyxnvpDo1Y-52" value="15" style="ellipse;whiteSpace=wrap;html=1;aspect=fixed;" vertex="1" parent="1">
          <mxGeometry x="680" y="1340" width="70" height="70" as="geometry" />
        </mxCell>
        <mxCell id="Q2N4sj5XguYyxnvpDo1Y-55" value="28" style="ellipse;whiteSpace=wrap;html=1;aspect=fixed;" vertex="1" parent="1">
          <mxGeometry x="680" y="1450" width="70" height="70" as="geometry" />
        </mxCell>
        <mxCell id="Q2N4sj5XguYyxnvpDo1Y-59" style="edgeStyle=orthogonalEdgeStyle;rounded=0;orthogonalLoop=1;jettySize=auto;html=1;entryX=1;entryY=0.5;entryDx=0;entryDy=0;" edge="1" parent="1" source="Q2N4sj5XguYyxnvpDo1Y-57" target="Q2N4sj5XguYyxnvpDo1Y-44">
          <mxGeometry relative="1" as="geometry" />
        </mxCell>
        <mxCell id="Q2N4sj5XguYyxnvpDo1Y-57" value="12.3" style="ellipse;whiteSpace=wrap;html=1;aspect=fixed;" vertex="1" parent="1">
          <mxGeometry x="650" y="1190" width="70" height="70" as="geometry" />
        </mxCell>
        <mxCell id="Q2N4sj5XguYyxnvpDo1Y-63" style="edgeStyle=orthogonalEdgeStyle;rounded=0;orthogonalLoop=1;jettySize=auto;html=1;entryX=0.5;entryY=0;entryDx=0;entryDy=0;" edge="1" parent="1" source="Q2N4sj5XguYyxnvpDo1Y-61" target="Q2N4sj5XguYyxnvpDo1Y-62">
          <mxGeometry relative="1" as="geometry" />
        </mxCell>
        <mxCell id="Q2N4sj5XguYyxnvpDo1Y-65" style="edgeStyle=orthogonalEdgeStyle;rounded=0;orthogonalLoop=1;jettySize=auto;html=1;entryX=0.5;entryY=0;entryDx=0;entryDy=0;" edge="1" parent="1" source="Q2N4sj5XguYyxnvpDo1Y-61" target="Q2N4sj5XguYyxnvpDo1Y-64">
          <mxGeometry relative="1" as="geometry" />
        </mxCell>
        <mxCell id="Q2N4sj5XguYyxnvpDo1Y-61" value="16" style="ellipse;whiteSpace=wrap;html=1;aspect=fixed;" vertex="1" parent="1">
          <mxGeometry x="270" y="1050" width="70" height="70" as="geometry" />
        </mxCell>
        <mxCell id="Q2N4sj5XguYyxnvpDo1Y-67" style="edgeStyle=orthogonalEdgeStyle;rounded=0;orthogonalLoop=1;jettySize=auto;html=1;entryX=0.5;entryY=0;entryDx=0;entryDy=0;" edge="1" parent="1" source="Q2N4sj5XguYyxnvpDo1Y-62" target="Q2N4sj5XguYyxnvpDo1Y-66">
          <mxGeometry relative="1" as="geometry" />
        </mxCell>
        <mxCell id="Q2N4sj5XguYyxnvpDo1Y-70" style="edgeStyle=orthogonalEdgeStyle;rounded=0;orthogonalLoop=1;jettySize=auto;html=1;" edge="1" parent="1" source="Q2N4sj5XguYyxnvpDo1Y-62" target="Q2N4sj5XguYyxnvpDo1Y-57">
          <mxGeometry relative="1" as="geometry" />
        </mxCell>
        <mxCell id="Q2N4sj5XguYyxnvpDo1Y-62" value="18" style="ellipse;whiteSpace=wrap;html=1;aspect=fixed;" vertex="1" parent="1">
          <mxGeometry x="180" y="1110" width="70" height="70" as="geometry" />
        </mxCell>
        <mxCell id="Q2N4sj5XguYyxnvpDo1Y-64" value="17" style="ellipse;whiteSpace=wrap;html=1;aspect=fixed;" vertex="1" parent="1">
          <mxGeometry x="350" y="1110" width="70" height="70" as="geometry" />
        </mxCell>
        <mxCell id="Q2N4sj5XguYyxnvpDo1Y-66" value="19" style="ellipse;whiteSpace=wrap;html=1;aspect=fixed;" vertex="1" parent="1">
          <mxGeometry x="100" y="1190" width="70" height="70" as="geometry" />
        </mxCell>
        <mxCell id="Q2N4sj5XguYyxnvpDo1Y-68" value="12.3" style="ellipse;whiteSpace=wrap;html=1;aspect=fixed;" vertex="1" parent="1">
          <mxGeometry x="720" y="1090" width="70" height="70" as="geometry" />
        </mxCell>
        <mxCell id="Q2N4sj5XguYyxnvpDo1Y-73" style="edgeStyle=orthogonalEdgeStyle;rounded=0;orthogonalLoop=1;jettySize=auto;html=1;" edge="1" parent="1" source="Q2N4sj5XguYyxnvpDo1Y-71">
          <mxGeometry relative="1" as="geometry">
            <mxPoint x="190" y="770" as="targetPoint" />
          </mxGeometry>
        </mxCell>
        <mxCell id="Q2N4sj5XguYyxnvpDo1Y-78" style="edgeStyle=orthogonalEdgeStyle;rounded=0;orthogonalLoop=1;jettySize=auto;html=1;" edge="1" parent="1" source="Q2N4sj5XguYyxnvpDo1Y-71" target="Q2N4sj5XguYyxnvpDo1Y-77">
          <mxGeometry relative="1" as="geometry" />
        </mxCell>
        <mxCell id="Q2N4sj5XguYyxnvpDo1Y-71" value="20" style="ellipse;whiteSpace=wrap;html=1;aspect=fixed;" vertex="1" parent="1">
          <mxGeometry x="280" y="720" width="70" height="70" as="geometry" />
        </mxCell>
        <mxCell id="Q2N4sj5XguYyxnvpDo1Y-76" style="edgeStyle=orthogonalEdgeStyle;rounded=0;orthogonalLoop=1;jettySize=auto;html=1;" edge="1" parent="1" source="Q2N4sj5XguYyxnvpDo1Y-74" target="Q2N4sj5XguYyxnvpDo1Y-75">
          <mxGeometry relative="1" as="geometry" />
        </mxCell>
        <mxCell id="Q2N4sj5XguYyxnvpDo1Y-74" value="21" style="ellipse;whiteSpace=wrap;html=1;aspect=fixed;" vertex="1" parent="1">
          <mxGeometry x="120" y="740" width="70" height="70" as="geometry" />
        </mxCell>
        <mxCell id="Q2N4sj5XguYyxnvpDo1Y-75" value="28" style="ellipse;whiteSpace=wrap;html=1;aspect=fixed;" vertex="1" parent="1">
          <mxGeometry x="20" y="820" width="70" height="70" as="geometry" />
        </mxCell>
        <mxCell id="Q2N4sj5XguYyxnvpDo1Y-80" style="edgeStyle=orthogonalEdgeStyle;rounded=0;orthogonalLoop=1;jettySize=auto;html=1;" edge="1" parent="1" source="Q2N4sj5XguYyxnvpDo1Y-77" target="Q2N4sj5XguYyxnvpDo1Y-79">
          <mxGeometry relative="1" as="geometry" />
        </mxCell>
        <mxCell id="Q2N4sj5XguYyxnvpDo1Y-82" style="edgeStyle=orthogonalEdgeStyle;rounded=0;orthogonalLoop=1;jettySize=auto;html=1;entryX=0.5;entryY=0;entryDx=0;entryDy=0;" edge="1" parent="1" source="Q2N4sj5XguYyxnvpDo1Y-77" target="Q2N4sj5XguYyxnvpDo1Y-81">
          <mxGeometry relative="1" as="geometry" />
        </mxCell>
        <mxCell id="Q2N4sj5XguYyxnvpDo1Y-77" value="22" style="ellipse;whiteSpace=wrap;html=1;aspect=fixed;" vertex="1" parent="1">
          <mxGeometry x="280" y="840" width="70" height="70" as="geometry" />
        </mxCell>
        <mxCell id="Q2N4sj5XguYyxnvpDo1Y-79" value="23" style="ellipse;whiteSpace=wrap;html=1;aspect=fixed;" vertex="1" parent="1">
          <mxGeometry x="170" y="920" width="70" height="70" as="geometry" />
        </mxCell>
        <mxCell id="Q2N4sj5XguYyxnvpDo1Y-83" style="edgeStyle=orthogonalEdgeStyle;rounded=0;orthogonalLoop=1;jettySize=auto;html=1;entryX=1;entryY=0.5;entryDx=0;entryDy=0;" edge="1" parent="1" source="Q2N4sj5XguYyxnvpDo1Y-81" target="Q2N4sj5XguYyxnvpDo1Y-7">
          <mxGeometry relative="1" as="geometry" />
        </mxCell>
        <mxCell id="Q2N4sj5XguYyxnvpDo1Y-81" value="5.3" style="ellipse;whiteSpace=wrap;html=1;aspect=fixed;" vertex="1" parent="1">
          <mxGeometry x="740" y="850" width="70" height="70" as="geometry" />
        </mxCell>
        <mxCell id="Q2N4sj5XguYyxnvpDo1Y-87" style="edgeStyle=orthogonalEdgeStyle;rounded=0;orthogonalLoop=1;jettySize=auto;html=1;" edge="1" parent="1" source="Q2N4sj5XguYyxnvpDo1Y-84" target="Q2N4sj5XguYyxnvpDo1Y-86">
          <mxGeometry relative="1" as="geometry" />
        </mxCell>
        <mxCell id="Q2N4sj5XguYyxnvpDo1Y-84" value="24" style="ellipse;whiteSpace=wrap;html=1;aspect=fixed;" vertex="1" parent="1">
          <mxGeometry x="120" y="370" width="70" height="70" as="geometry" />
        </mxCell>
        <mxCell id="Q2N4sj5XguYyxnvpDo1Y-86" value="25" style="ellipse;whiteSpace=wrap;html=1;aspect=fixed;" vertex="1" parent="1">
          <mxGeometry x="50" y="470" width="70" height="70" as="geometry" />
        </mxCell>
        <mxCell id="Q2N4sj5XguYyxnvpDo1Y-90" style="edgeStyle=orthogonalEdgeStyle;rounded=0;orthogonalLoop=1;jettySize=auto;html=1;" edge="1" parent="1" source="Q2N4sj5XguYyxnvpDo1Y-88">
          <mxGeometry relative="1" as="geometry">
            <mxPoint x="300" y="470" as="targetPoint" />
          </mxGeometry>
        </mxCell>
        <mxCell id="Q2N4sj5XguYyxnvpDo1Y-88" value="26" style="ellipse;whiteSpace=wrap;html=1;aspect=fixed;" vertex="1" parent="1">
          <mxGeometry x="330" y="360" width="70" height="70" as="geometry" />
        </mxCell>
        <mxCell id="Q2N4sj5XguYyxnvpDo1Y-91" value="27" style="ellipse;whiteSpace=wrap;html=1;aspect=fixed;" vertex="1" parent="1">
          <mxGeometry x="270" y="470" width="70" height="70" as="geometry" />
        </mxCell>
      </root>
    </mxGraphModel>
  </diagram>
</mxfile>
